<?xml version="1.0" encoding="UTF-8" standalone="no"?>
<!-- Generator: Adobe Illustrator 16.2.1, SVG Export Plug-In . SVG Version: 6.00 Build 0)  -->

<svg
   xmlns:dc="http://purl.org/dc/elements/1.1/"
   xmlns:cc="http://creativecommons.org/ns#"
   xmlns:rdf="http://www.w3.org/1999/02/22-rdf-syntax-ns#"
   xmlns:svg="http://www.w3.org/2000/svg"
   xmlns="http://www.w3.org/2000/svg"
   xmlns:sodipodi="http://sodipodi.sourceforge.net/DTD/sodipodi-0.dtd"
   xmlns:inkscape="http://www.inkscape.org/namespaces/inkscape"
   version="1.1"
   id="Layer_1"
   x="0px"
   y="0px"
   width="115px"
   height="20px"
   viewBox="0 0 115 20"
   enable-background="new 0 0 115 20"
   xml:space="preserve"
   inkscape:version="0.91+devel r14303"
   sodipodi:docname="planetos-logo.svg"><metadata
     id="metadata37"><rdf:RDF><cc:Work
         rdf:about=""><dc:format>image/svg+xml</dc:format><dc:type
           rdf:resource="http://purl.org/dc/dcmitype/StillImage" /></cc:Work></rdf:RDF></metadata><defs
     id="defs35" /><sodipodi:namedview
     pagecolor="#ffffff"
     bordercolor="#666666"
     borderopacity="1"
     objecttolerance="10"
     gridtolerance="10"
     guidetolerance="10"
     inkscape:pageopacity="0"
     inkscape:pageshadow="2"
     inkscape:window-width="1580"
     inkscape:window-height="864"
     id="namedview33"
     showgrid="false"
     inkscape:zoom="2.6956522"
     inkscape:cx="57.129032"
     inkscape:cy="10"
     inkscape:window-x="0"
     inkscape:window-y="0"
     inkscape:window-maximized="0"
     inkscape:current-layer="Layer_1" /><g
     id="g30"
     style="fill:#ffffff;fill-opacity:1"><path
       d="M20.043,10.022C20.043,4.487,15.557,0,10.023,0C4.487,0,0,4.487,0,10.022c0,3.708,2.016,6.947,5.012,8.679v-2.4   l0.014-0.012c-1.842-1.467-3.021-3.729-3.021-6.267c0-4.429,3.59-8.018,8.02-8.018c4.428,0,8.015,3.589,8.015,8.018   c0,2.531-1.173,4.789-3.005,6.255v2.424C18.026,16.969,20.043,13.731,20.043,10.022"
       id="path2"
       style="fill:#ffffff;fill-opacity:1" /><path
       d="M13.029,15.231L13.029,15.231c1.797-1.041,3.006-2.984,3.006-5.208c0-1.923-0.903-3.635-2.308-4.735l-1.233,1.577   c0.936,0.735,1.537,1.876,1.537,3.158c0,1.869-1.279,3.437-3.008,3.88v0.008V20l0.062-0.012c0.668-0.072,1.318-0.209,1.941-0.402   l0.002-0.002V15.231z"
       id="path4"
       style="fill:#ffffff;fill-opacity:1" /><path
       d="M9.02,13.903L9.02,13.903c-1.729-0.443-3.006-2.014-3.006-3.881c0-1.282,0.601-2.423,1.537-3.157L6.315,5.287   C4.91,6.387,4.01,8.099,4.01,10.022c0,2.225,1.209,4.168,3.006,5.209v0.002v4.352c0.642,0.203,1.311,0.34,2.002,0.41l0.002,0.002   V13.903z"
       id="path6"
       style="fill:#ffffff;fill-opacity:1" /><path
       d="M11.248,5.011c0-0.676-0.551-1.225-1.225-1.225c-0.679,0-1.227,0.549-1.227,1.225c0,0.677,0.548,1.226,1.227,1.226   C10.697,6.236,11.248,5.688,11.248,5.011"
       id="path8"
       style="fill:#ffffff;fill-opacity:1" /><path
       d="M12.027,10.022c0,1.106-0.897,2.003-2.004,2.003c-1.107,0-2.006-0.897-2.006-2.003c0-1.107,0.898-2.004,2.006-2.004   C11.13,8.019,12.027,8.915,12.027,10.022"
       id="path10"
       style="fill:#ffffff;fill-opacity:1" /><path
       d="M26.34,4.849h4.092c2.416,0,3.942,1.38,3.942,3.469v0.03c0,2.327-1.868,3.542-4.149,3.542h-2.062v3.338H26.34V4.849z    M30.283,10.245c1.378,0,2.24-0.771,2.24-1.854V8.362c0-1.216-0.877-1.854-2.24-1.854h-2.12v3.737H30.283z"
       id="path12"
       style="fill:#ffffff;fill-opacity:1" /><polygon
       points="36.619,4.849 38.443,4.849 38.443,13.565 43.899,13.565 43.041,15.227 36.619,15.227  "
       id="polygon14"
       style="fill:#ffffff;fill-opacity:1" /><polygon
       points="47.15,15.227 45.282,15.227 49.85,4.774 51.539,4.774 56.105,15.227 54.178,15.227 50.665,6.954  "
       id="polygon16"
       style="fill:#ffffff;fill-opacity:1" /><polygon
       points="58.262,4.849 59.952,4.849 65.512,12.024 65.512,4.849 67.305,4.849 67.305,15.227 65.778,15.227 60.055,7.844    60.055,15.227 58.262,15.227  "
       id="polygon18"
       style="fill:#ffffff;fill-opacity:1" /><polygon
       points="70.35,4.849 78.043,4.849 78.043,6.479 72.174,6.479 72.174,9.178 76.588,9.178 76.588,10.809 72.174,10.809    72.174,13.596 78.12,13.596 78.12,15.227 70.35,15.227  "
       id="polygon20"
       style="fill:#ffffff;fill-opacity:1" /><polygon
       points="83.209,6.538 79.918,6.538 79.918,4.848 88.338,4.848 88.338,6.538 85.047,6.538 85.047,15.227 83.209,15.227  "
       id="polygon22"
       style="fill:#ffffff;fill-opacity:1" /><path
       d="M93.77,10.067v-0.029c0-2.921,2.252-5.367,5.438-5.367c3.188,0,5.412,2.416,5.412,5.337v0.03   c0,2.919-2.252,5.367-5.441,5.367C95.993,15.405,93.77,12.989,93.77,10.067 M102.708,10.067v-0.029   c0-2.016-1.469-3.692-3.529-3.692c-2.059,0-3.496,1.645-3.496,3.662v0.03c0,2.017,1.467,3.691,3.525,3.691   C101.27,13.729,102.708,12.083,102.708,10.067"
       id="path24"
       style="fill:#ffffff;fill-opacity:1" /><path
       d="M106.436,13.715l1.098-1.307c0.992,0.861,1.986,1.35,3.275,1.35c1.125,0,1.84-0.518,1.84-1.303v-0.031   c0-0.74-0.418-1.141-2.344-1.585c-2.209-0.535-3.455-1.188-3.455-3.099V7.71c0-1.779,1.482-3.009,3.545-3.009   c1.51,0,2.713,0.459,3.764,1.304l-0.979,1.378c-0.936-0.696-1.867-1.066-2.816-1.066c-1.066,0-1.689,0.548-1.689,1.23v0.03   c0,0.8,0.475,1.156,2.461,1.63c2.193,0.534,3.336,1.32,3.336,3.04v0.029c0,1.941-1.527,3.1-3.707,3.1   C109.176,15.375,107.68,14.827,106.436,13.715"
       id="path26"
       style="fill:#ffffff;fill-opacity:1" /><path
       d="M51.488,13.565c0,0.459-0.372,0.832-0.829,0.832c-0.458,0-0.83-0.373-0.83-0.832s0.372-0.83,0.83-0.83   C51.116,12.735,51.488,13.106,51.488,13.565"
       id="path28"
       style="fill:#ffffff;fill-opacity:1" />
       </g>
    </svg>
